# xmcd
#
# Track frame offsets:
#	150
#	12443
#	22328
#	33280
#	42982
#	54990
#	67928
#	78778
#	89794
#	99888
#	110525
#	122939
#
# Disc length: 1773 seconds
#
# Revision: 0
# Processed by: cddbd v1.5.2PL0 Copyright (c) Steve Scherf et al.
# Submitted via: audiograbber 1.83.01
#
DISCID=9706eb0c
DTITLE=Dean Martin - Houston
DYEAR=1965
DGENRE=Oldies
TTITLE0=Houston
TTITLE1=The First Thing Every Morning
TTITLE2=Hammer And Nails
TTITLE3=Little Lovely One
TTITLE4=Love, Love, Love
TTITLE5=Down Home
TTITLE6=I Will
TTITLE7=Snap Your Fingers
TTITLE8=Everybody But Me
TTITLE9=Old Yellow Line
TTITLE10=Detour
TTITLE11=You're The Reason I'm In Love
EXTD=
EXTT0=
EXTT1=
EXTT2=
EXTT3=
EXTT4=
EXTT5=
EXTT6=
EXTT7=
EXTT8=
EXTT9=
EXTT10=
EXTT11=
PLAYORDER=
